<!-- This is a copy. Not used in main html. -->
<svg xmlns="http://www.w3.org/2000/svg" viewBox="0 0 142 70">
    <rect x="0" y="0" width="100%" height="100%" fill="#601010"/>
    <defs>
        <style>
            path, circle {fill: black; fill-opacity: 0.25;}
            path.active, circle.active {fill: #CC4433; fill-opacity: 1;}
        </style>
    </defs>
    <g transform="translate(6, 6)">
        <path class="a" d="M10.46 3.07 13.97 0h18.42l2.64 3.07-3.5 3.07H13.1l-2.64-3.07z"/>
        <path class="b active" d="m35.58 3.72 2.64 3.07-2.59 18.42-3.5 3.07-2.64-3.07 2.59-18.42 3.5-3.07z"/>
        <path class="c active" d="m31.95 29.58 2.64 3.07L32 51.07l-3.5 3.07-2.64-3.07 2.59-18.42 3.5-3.07z"/>
        <path class="d" d="m27.76 54.79-3.5 3.07H5.83l-2.64-3.07 3.51-3.07h18.42l2.64 3.07z"/>
        <path class="e" d="M2.64 54.14 0 51.07l2.59-18.42 3.5-3.07 2.64 3.07-2.59 18.42-3.5 3.07z"/>
        <path class="f" d="m6.27 28.28-2.64-3.07L6.22 6.79l3.51-3.07 2.63 3.07-2.58 18.42-3.51 3.07z"/>
        <path class="g" d="m6.83 28.93 3.5-3.07h18.43l2.63 3.07-3.5 3.07H9.47l-2.64-3.07z"/>
        <circle class="dot" cx="35.11" cy="54.75" r="3.11"/>
    </g>
    <g transform="translate(52, 6)" fill="black" fill-opacity="0.5">
        <path class="a active" d="M10.46 3.07 13.97 0h18.42l2.64 3.07-3.5 3.07H13.1l-2.64-3.07z"/>
        <path class="b active" d="m35.58 3.72 2.64 3.07-2.59 18.42-3.5 3.07-2.64-3.07 2.59-18.42 3.5-3.07z"/>
        <path class="c" d="m31.95 29.58 2.64 3.07L32 51.07l-3.5 3.07-2.64-3.07 2.59-18.42 3.5-3.07z"/>
        <path class="d active" d="m27.76 54.79-3.5 3.07H5.83l-2.64-3.07 3.51-3.07h18.42l2.64 3.07z"/>
        <path class="e active" d="M2.64 54.14 0 51.07l2.59-18.42 3.5-3.07 2.64 3.07-2.59 18.42-3.5 3.07z"/>
        <path class="f" d="m6.27 28.28-2.64-3.07L6.22 6.79l3.51-3.07 2.63 3.07-2.58 18.42-3.51 3.07z"/>
        <path class="g active" d="m6.83 28.93 3.5-3.07h18.43l2.63 3.07-3.5 3.07H9.47l-2.64-3.07z"/>
        <circle class="dot" cx="35.11" cy="54.75" r="3.11"/>
    </g>
    <g transform="translate(98, 6)" fill="black" fill-opacity="0.5">
        <path class="a active" d="M10.46 3.07 13.97 0h18.42l2.64 3.07-3.5 3.07H13.1l-2.64-3.07z"/>
        <path class="b active" d="m35.58 3.72 2.64 3.07-2.59 18.42-3.5 3.07-2.64-3.07 2.59-18.42 3.5-3.07z"/>
        <path class="c active" d="m31.95 29.58 2.64 3.07L32 51.07l-3.5 3.07-2.64-3.07 2.59-18.42 3.5-3.07z"/>
        <path class="d active" d="m27.76 54.79-3.5 3.07H5.83l-2.64-3.07 3.51-3.07h18.42l2.64 3.07z"/>
        <path class="e active" d="M2.64 54.14 0 51.07l2.59-18.42 3.5-3.07 2.64 3.07-2.59 18.42-3.5 3.07z"/>
        <path class="f active" d="m6.27 28.28-2.64-3.07L6.22 6.79l3.51-3.07 2.63 3.07-2.58 18.42-3.51 3.07z"/>
        <path class="g" d="m6.83 28.93 3.5-3.07h18.43l2.63 3.07-3.5 3.07H9.47l-2.64-3.07z"/>
        <circle class="dot" cx="35.11" cy="54.75" r="3.11"/>
    </g>
</svg>