<svg xmlns="http://www.w3.org/2000/svg" viewBox="0 0 416 200" width="416" height="200" style="background-color: white; border: 1px red dashed;">
    <g>
        <path d="M260.7 61c5.8.5 11.5 1.1 17.2 1.7l.8-1.9c-5.5-.6-11.1-1.2-16.6-1.7l8.7-29.4c-.7-.1-1.4-.1-2-.2L260 59c-5.6-.5-11.2-.9-16.8-1.2l5.7-29.6c-.7 0-1.3-.1-2-.1l-5.7 29.6-13.8-.6 3.1-29.7c-1.3 0-2.7-.1-4-.1L223.4 57c-5.6-.2-11.3-.2-16.9-.2V27h-2v29.7c-4.5 0-9.1.1-13.6.2l-2.6-29.7c-1.3 0-2.7.1-4 .1l2.6 29.7c-4.6.1-9.2.3-13.7.5L168 27.9c-.7 0-1.3.1-2 .1l5.2 29.6c-4.7.2-9.4.5-14 .9l-8-29.5c-1.4.1-2.7.2-4.1.3l7.9 29.5c-10.6.9-21.1 2-31.4 3.3l-13.5-28.9-4.2.6 13.5 29c-14.2 2-28.2 4.4-41.8 7.4-.2 0-.4.1-.6.1L54 42.4c-1.4.3-2.9.6-4.3.9l21 27.9c-6.5 1.5-12.8 3-19.1 4.7l1.5 1.7c31.1-8.2 65-14 100.8-16.8 1-.1 2-.2 2.9-.2 15.8-1.2 32.1-1.8 48.5-1.8 6 0 12 .1 18 .2.9 0 1.7.1 2.6.1 5.2.2 10.4.4 15.5.7.4 0 .8 0 1.2.1 5.7.3 11.3.7 16.9 1.2.5-.1.9-.1 1.2-.1z"/>
        <path fill="#ed1c24"
              d="m338.1 57.3 11.3-16.4c-1.4-.3-2.8-.6-4.3-.8l-11.3 16.4c-5.2-1-10.4-2-15.7-2.9l9.6-16.7-2.1-.3-9.6 16.6c-5.3-.9-10.6-1.7-16-2.4l8.1-16.9-2.1-.3-8.1 16.9c-4.1-.6-8.3-1.1-12.4-1.6l6.7-17.1c-1.4-.2-2.7-.3-4.1-.5l-12.2 31.1c.7.1 1.4.2 2.1.2 29.8 3.4 58 8.8 84.2 16l12.1-12.9c-11.8-3.1-23.9-5.9-36.2-8.4z"/>
        <path fill="#414042"
              d="M33.3 37.7v-1.5c2.2-1.8 8.5-7.2 8.5-9.9 0-1.8-1.5-2.7-3.3-2.7-2 0-3.4 1.2-3.4 3h-1.7c0-2.6 2.2-4.3 5.1-4.3 2.7 0 5 1.3 5 3.9 0 3.5-5.8 7.9-8.4 10.1h8.6v1.3H33.3zm24.3-7.5c0 3.8-1 7.8-5.5 7.8s-5.5-4-5.5-7.8 1-7.8 5.5-7.8c4.6 0 5.5 4 5.5 7.8zm-9.3 0c0 2.2.3 6.5 3.8 6.5s3.8-4.3 3.8-6.5-.3-6.5-3.8-6.5-3.8 4.3-3.8 6.5zm40.5-14.1c1.4-.5 2.7-1.4 3.8-2.4h1.5v15h-1.6V15.2c-1.1 1-2.4 1.7-3.7 2.2v-1.3zm20.9 5.1c0 3.8-1 7.8-5.5 7.8s-5.5-4-5.5-7.8 1-7.8 5.5-7.8c4.6 0 5.5 4 5.5 7.8zm-9.3 0c0 2.2.3 6.5 3.8 6.5s3.8-4.3 3.8-6.5-.3-6.5-3.8-6.5-3.8 4.3-3.8 6.5zM148.6 10l-6.5 13.7h-1.8l6.6-13.7h-9V8.7h10.6V10zM180 6.7h9.1V8h-7.7l-.3 5.3c.9-1 2.2-1.6 3.6-1.6 3.1 0 5.1 2.3 5.1 5 0 2.9-2 5.2-5.3 5.2-2.8 0-5.3-1.2-5.4-4h1.7c.1 1.8 1.6 2.7 3.5 2.7 2.6 0 3.8-1.8 3.8-4s-1.2-3.6-3.7-3.6c-1.6 0-3 .9-3.4 2.3h-1.6l.6-8.6z"/>
        <path d="M228.2 13.2c2.1.2 4.6-.6 4.6-2.8 0-1.7-1.7-2.7-3.7-2.7-2.1 0-3.4 1-3.6 2.7h-1.7c0-2.5 2.5-4 5.1-4 2.8 0 5.6 1.2 5.6 4.1 0 1.8-1.5 3-3.4 3.4 2.1.4 3.6 1.8 3.6 3.8 0 2.8-2.9 4.3-5.7 4.3-2.9 0-5.4-1.4-5.5-4.3h1.7c0 1.9 1.8 3 3.8 3 2.2 0 4-1.1 4-3.2 0-2.4-2.6-3.2-4.8-2.9v-1.4z"/>
        <path fill="#ed1c24"
              d="M299 18.2c0 3.8-1 7.8-5.5 7.8s-5.5-4-5.5-7.8 1-7.8 5.5-7.8 5.5 4 5.5 7.8zm-9.4 0c0 2.2.3 6.5 3.8 6.5s3.8-4.3 3.8-6.5-.3-6.5-3.8-6.5-3.8 4.3-3.8 6.5zm62.6 8c2.1.2 4.6-.6 4.6-2.8 0-1.7-1.7-2.7-3.7-2.7-2.1 0-3.4 1-3.6 2.7h-1.7c0-2.5 2.5-4 5.1-4 2.8 0 5.6 1.2 5.6 4.1 0 1.8-1.5 3-3.4 3.4 2.1.4 3.6 1.8 3.6 3.8 0 2.8-2.9 4.3-5.7 4.3-2.9 0-5.4-1.4-5.5-4.3h1.7c0 1.9 1.8 3 3.8 3 2.2 0 4-1.1 4-3.2 0-2.4-2.6-3.2-4.8-2.9v-1.4z"/>
        <path fill="#414042" d="M2.4 19.6h12v1.3h-12v-1.3z"/>
        <path fill="#ed1c24" d="M408.7 14.8h1.4v4.8h5.3v1.3h-5.3v4.8h-1.4v-4.8h-5.3v-1.3h5.3v-4.8z"/>
        <path d="M191.8 129.7h-4.4l-10.3-26h4.4l8.2 22.2 8.6-22.2h4l-10.5 26zm19.1-26v16.1c0 2.8.7 3.9 1.3 4.7 1.8 2.2 4.6 2.6 6.6 2.6 7.8 0 7.8-5.5 7.8-7.4v-15.9h3.9v16c0 1.4 0 4.3-2.4 6.9-2.8 3.2-7.2 3.6-9.3 3.6-2.7 0-7.5-.7-10.2-4.1-.9-1.2-1.7-2.7-1.7-6.6v-15.8h4z"/>
    </g>
<!--  3db steps  -->
<!-- 6 21.7 | 34.7 -->
    <g id="needle" transform="rotate(6)" transform-origin="205 246">
        <path fill="none" stroke="#000" stroke-width="3" stroke-linecap="round" d="M205 246 205 14"/>
    </g>
</svg>