<svg xmlns="http://www.w3.org/2000/svg" viewBox="0 0 156 7">
    <path d="M0 0h7.52c1.04 0 1.56.43 1.56 1.3v1.3c0 .43-.13.69-.39.78.26.17.39.43.39.78l.39 2.86H7.92l-.39-2.86c0-.17-.09-.26-.26-.26H1.56v3.11H0V2.6h7.26c.17 0 .26-.09.26-.26v-.78c0-.17-.09-.26-.26-.26H0V0Zm12.2 0v2.6h5.97V0h1.56v7.02h-1.56V3.9H12.2v3.11h-1.56V0h1.56Zm8.57 0h2.08l2.47 2.6L27.77 0h2.08l-3.76 3.89V7h-1.55V3.9L20.77 0Zm9.6 1.31V0h9.08v1.31h-3.76v5.71h-1.55V1.31h-3.76ZM42.05 0v2.6h5.97V0h1.56v7.02h-1.56V3.9h-5.97v3.11h-1.56V0h1.56ZM57.1 7.01h-1.3L52.42 1.3v5.71h-1.56V1.3c.01-.86.53-1.3 1.57-1.3.52 0 .95.26 1.3.78l2.73 4.67L59.19.78c.35-.52.78-.78 1.3-.78 1.02 0 1.54.43 1.56 1.3v5.71H60.5V1.3l-3.38 5.71ZM79.06 0v1.31h-7.27c-.17 0-.26.09-.26.26v3.88c0 .17.09.26.26.26h7.27v1.3h-7.53c-1.04 0-1.56-.43-1.56-1.3v-4.4c0-.87.52-1.3 1.56-1.3h7.53Zm3.12 0h5.97c1.04 0 1.56.43 1.56 1.3v4.41c0 .87-.52 1.3-1.56 1.3h-5.97c-1.04 0-1.56-.43-1.56-1.3v-4.4c0-.87.52-1.3 1.56-1.3Zm5.71 1.3h-5.45c-.17 0-.26.09-.26.26v3.88c0 .17.09.26.26.26h5.45c.17 0 .26-.09.26-.26V1.57c0-.17-.09-.26-.26-.26ZM97.23 7h-1.3l-3.38-5.71v5.72h-1.56V1.3c0-.87.52-1.3 1.56-1.3.52 0 .95.26 1.3.78l2.73 4.67L99.31.78c.35-.52.78-.78 1.3-.78 1.02 0 1.54.43 1.56 1.3v5.71h-1.55V1.3l-3.38 5.71Zm6.24-7h7.52c1.04 0 1.56.43 1.56 1.3v1.3c0 .87-.52 1.3-1.56 1.3h-5.96v3.11h-1.56V2.6h7.26c.17 0 .26-.09.26-.26v-.78c0-.17-.09-.26-.26-.26h-7.26V0Zm12.2 0h5.97c1.04 0 1.56.43 1.56 1.3v4.41c0 .87-.52 1.3-1.56 1.3h-5.97c-1.04 0-1.56-.43-1.56-1.3v-4.4c0-.87.52-1.3 1.56-1.3Zm5.71 1.3h-5.45c-.17 0-.26.09-.26.26v3.88c0 .17.09.26.26.26h5.45c.17 0 .26-.09.26-.26V1.57c0-.17-.09-.26-.26-.26Zm12.46-1.31V1.3h-7.26c-.17.09-.26.21-.26.39s.09.3.26.39l5.45 1.56c1.21.35 1.82.78 1.82 1.3v.78c0 .87-.52 1.3-1.56 1.3h-7.52v-1.3h7.26c.17-.09.26-.22.26-.39s-.09-.3-.26-.39l-5.45-1.56c-1.21-.35-1.82-.78-1.82-1.3V1.3c0-.87.52-1.3 1.56-1.3h7.52Zm10.65 0v1.32h-7.27c-.17 0-.26.09-.26.26V2.6h7.53v1.3h-7.53v1.55c0 .17.09.26.26.26h7.27v1.3h-7.53c-1.04 0-1.56-.43-1.56-1.3v-4.4c0-.87.52-1.3 1.56-1.3h7.53Zm1.56 0h7.52c1.04 0 1.56.43 1.56 1.3v1.3c0 .43-.13.69-.39.78.26.17.39.43.39.78l.39 2.86h-1.55l-.39-2.86c0-.17-.09-.26-.26-.26h-5.71V7h-1.56V2.6h7.26c.17 0 .26-.09.26-.26v-.78c0-.17-.09-.26-.26-.26h-7.26V0Z"
          fill="rgba(0,0,0,0.6)"/>
</svg>