<svg xmlns="http://www.w3.org/2000/svg" viewBox="0 0 108 14">
    <path d="M0 2.58V0h17.95v2.58h-7.44v11.29H7.44V2.58H0ZM20.02 0h14.87c2.05 0 3.07.86 3.07 2.58v2.58c0 .86-.25 1.38-.77 1.55.51.34.77.85.77 1.54l.77 5.64h-3.07l-.77-5.64c0-.34-.17-.51-.51-.51H23.09v6.15h-3.07V5.15h14.36c.34 0 .51-.17.51-.52V3.09c0-.35-.17-.52-.51-.52H20.02V0Zm19.49 5.65h5.64V7.7h-5.64V5.65Zm8.22 8.22v-2.58h14.36c.34 0 .51-.17.51-.51V7.72H50.81c-2.05 0-3.08-.85-3.08-2.57V2.59C47.73.88 48.75.03 50.8.03h11.8c2.05 0 3.07.85 3.07 2.57v8.71c0 1.71-1.02 2.57-3.07 2.57H47.73Zm3.59-8.72h11.29V3.11c0-.34-.17-.51-.51-.51H51.33c-.34 0-.51.17-.51.51v1.53c0 .34.17.51.51.51ZM71.85.03h11.8c2.05 0 3.07.85 3.07 2.57v8.71c0 1.71-1.02 2.57-3.07 2.57h-11.8c-2.05 0-3.07-.85-3.07-2.57V2.59C68.78.88 69.8.02 71.85.02ZM83.14 2.6H72.37c-.34 0-.51.17-.51.51v7.67c0 .34.17.51.51.51h10.77c.34 0 .51-.17.51-.51V3.11c0-.34-.17-.51-.51-.51Zm6.68 11.27v-2.58h14.36c.34 0 .51-.17.51-.51V7.72H92.9c-2.05 0-3.08-.85-3.08-2.57V2.59c0-1.71 1.02-2.57 3.07-2.57h11.8c2.05 0 3.07.85 3.07 2.57v8.72c0 1.71-1.02 2.57-3.07 2.57H89.82Zm3.59-8.72h11.29V3.11c0-.34-.17-.51-.51-.51H93.42c-.34 0-.51.17-.51.51v1.53c0 .34.17.51.51.51Z"
          fill="#43484a"/>
</svg>