<svg xmlns="http://www.w3.org/2000/svg" viewBox="0 0 102 15">
    <path fill-rule="evenodd" clip-rule="evenodd" fill="#ef8846"
          d="M4.2 7.6c1-1.8 2.9-2.5 4.8-2.5h14.9v-.9H4.2v3.4zm0 3.9c.9 1.8 2.9 2.4 4.7 2.5h20.7v-1.5H9c-2-.1-3.3-.7-3.7-2.6C5.3 7.4 7 6.7 9 6.6h16.3v-4H2.7v11.1h1.5v-2.2zM0 .1h25.2c2.6.1 4.5 1.6 4.7 4.5-.1 2.6-1.7 4.3-4.7 4.5H9.9v.8h19.9v1.5H8.4V7.5h16.8c2.1-.1 3-1 3.2-2.9-.2-2.1-1.4-2.9-3.2-3H1.5v12.2H0V.1zM62 .6v12.8s0 .6.6.6h1.5c.5 0 .5-.5.5-.5V.6s0-.6-.5-.6h-1.5c-.6 0-.6.6-.6.6zM68.8 10c1.3-.7 4.4-.6 4.7-.5.2 0 .4.1.4.3 0 2.7-3.7 3.1-5.1 2.1-.3-.2-.5-.5-.5-.9s.1-.8.5-1zm-1.6 3.6c1.7 1.3 5 .9 6.4-.3.2-.2.4 0 .4.1.2.5.4.6.8.6h.9c.6 0 .6-.5.6-.5V7.6c0-3.1-3-4-5.2-4-2.5 0-4.1 1-5 2.9 0 .3.2.5.4.5h1.7c.3 0 .6-.3.7-.4.5-.8 1.2-1 2.5-1 1.5 0 1.9.3 2.4 1 .3.5-.1.9-.4.9-3.6.2-4.2.3-5.2.5-1.4.2-2.5 1.6-2.5 3 .1 1 .5 1.9 1.5 2.6zM88.7 13.4V7.8c0-2.5-2.3-4.1-3.9-4.1s-3 .4-4.1 1.3c-.1 0-.4.1-.4-.1v-.6s0-.5-.5-.5h-1.3s-.6 0-.6.5v9.1c0 .6.6.6.6.6h1.3c.5 0 .5-.5.5-.6V8.9c0-1.2.8-3.3 3.6-3.3 2 0 2.3 1.3 2.3 2.1v5.7c0 .5.6.5.6.5h1.3c0 .1.6.1.6-.5zM48.5 9c0-2.3 1.8-5.3 6.4-5.3 4.5 0 6.4 3 6.4 5.3 0 2.4-1.8 5.3-6.4 5.3-4.6.1-6.4-2.8-6.4-5.3zm10.1 0c0-1.5-1.3-3.4-3.8-3.4S51 7.6 51 9c0 1.5 1.2 3.4 3.8 3.4 2.5.1 3.8-1.9 3.8-3.4zM95.7 5.7c1.9 0 3.4 1.3 3.4 3.3 0 2.1-1.5 3.4-3.4 3.4s-3.4-1.5-3.4-3.5c0-1.8 1.6-3.2 3.4-3.2zm3.1 7.4c.2-.1.3 0 .3.3 0 .1 0 .6.6.6h1.3s.5 0 .5-.6V.6c0-.6-.5-.6-.5-.6h-1.3s-.6 0-.6.6v4.1c0 .3-.2.4-.3.3-3.6-2.8-9.1 0-9.1 4.1.1 4.4 5.5 6.9 9.1 4zM37.7 8.3v5.2c0 .5-.5.5-.5.5h-1.3s-.6 0-.6-.5V.6c0-.6.6-.6.6-.6H44c1.9 0 4 1.3 4 3.8 0 1.3-.8 2.4-1.8 3.1-.1.1-.1.2-.1.2.7.5.7 1 .9 1.9.5 1.7.5 3.2 1.2 4.6.1.1 0 .3-.2.3h-1.6c-.5 0-.8-.3-.9-.6-.6-1.8-.2-3.5-1.4-5.1-.3-.4-.9-.6-1.7-.6h-4.1c0 .1-.6.1-.6.7zm5.5-2.5s2.2 0 2.2-2-2.2-2-2.2-2h-4.9c-.6 0-.6.5-.6.5v2.9c0 .5.6.5.6.5h4.9v.1z"/>
</svg>